<svg viewBox="0 0 32 32" xmlns="http://www.w3.org/2000/svg">
  <rect width="32" height="32" rx="8" fill="#006B5F"/>
  <path d="m12.5 19 2.5-6.5 2.5 6.5c-.7.5-1.5.8-2.5.8s-1.8-.3-2.5-.8Z" fill="none" stroke="#FFFFFF" stroke-width="1.5" stroke-linecap="round" stroke-linejoin="round"/>
  <path d="m5 19 2.5-6.5L10 19c-.7.5-1.5.8-2.5.8S5.7 19.5 5 19Z" fill="none" stroke="#FFFFFF" stroke-width="1.5" stroke-linecap="round" stroke-linejoin="round"/>
  <path d="m20 19 2.5-6.5L25 19c-.7.5-1.5.8-2.5.8s-1.8-.3-2.5-.8Z" fill="none" stroke="#FFFFFF" stroke-width="1.5" stroke-linecap="round" stroke-linejoin="round"/>
  <path d="M9.5 24h11" fill="none" stroke="#FFFFFF" stroke-width="1.5" stroke-linecap="round"/>
  <path d="M15 9v15" fill="none" stroke="#FFFFFF" stroke-width="1.5" stroke-linecap="round"/>
  <path d="M6.5 11h2c1.5 0 4-.8 5.5-1.5 1.5.7 4 1.5 5.5 1.5h2" fill="none" stroke="#FFFFFF" stroke-width="1.5" stroke-linecap="round" stroke-linejoin="round"/>
</svg>
